# xmcd
#
# Track frame offsets:
#	150
#	10684
#	27594
#	42071
#	58646
#	74384
#	89925
#	100671
#	116209
#	137639
#	152290
#	172276
#	184376
#	203037
#	213599
#	229415
#	250207
#	265929
#	275840
#	292392
#	306895
#	321263
#	334776
#
# Disc length: 4684 seconds
#
# Revision: 1
# Processed by: cddbd v1.5.1PL0 Copyright (c) Steve Scherf et al.
# Submitted via: audiograbber 1.83.01
#
DISCID=6e124a17
DTITLE=Collo de Menina and Erivan Morais - Fazendo a Diferenca
DYEAR=2005
DGENRE=Forro
TTITLE0=Resumo das musicas
TTITLE1=Por que
TTITLE2=Chorando por ela
TTITLE3=Eu nao sei nao
TTITLE4=Aventura sem amor
TTITLE5=Conga a gogo
TTITLE6=Trem da sacanagem
TTITLE7=Me da um beijo
TTITLE8=O que tem que ser sera
TTITLE9=Passei a noite no forro
TTITLE10=Apaixonado por voce
TTITLE11=Louca alucinada
TTITLE12=Sexy
TTITLE13=Eu te amei
TTITLE14=Voce fugiu de mim
TTITLE15=Sinonimos
TTITLE16=Pra te amar
TTITLE17=Uma chance
TTITLE18=Pense
TTITLE19=Eu sem voce
TTITLE20=Todo amor que eu te dei
TTITLE21=Manchete dos jornais
TTITLE22=Faixa bonus
EXTD=
EXTT0=
EXTT1=
EXTT2=
EXTT3=
EXTT4=
EXTT5=
EXTT6=
EXTT7=
EXTT8=
EXTT9=
EXTT10=
EXTT11=
EXTT12=
EXTT13=
EXTT14=
EXTT15=
EXTT16=
EXTT17=
EXTT18=
EXTT19=
EXTT20=
EXTT21=
EXTT22=
PLAYORDER=
